<svg xmlns="http://www.w3.org/2000/svg" version="1.1" xmlns:xlink="http://www.w3.org/1999/xlink" xmlns:svgjs="http://svgjs.dev/svgjs" width="1000" height="1000" viewBox="0 0 1000 1000"><rect width="1000" height="1000" fill="#003366"></rect><g transform="matrix(0.4679144385026738,0,0,0.4679144385026738,265.67079816978327,150.28340080971657)"><svg viewBox="0 0 165 247" data-background-color="#003366" preserveAspectRatio="xMidYMid meet" height="1496" width="1000" xmlns="http://www.w3.org/2000/svg" xmlns:xlink="http://www.w3.org/1999/xlink"><defs></defs><g id="tight-bounds" transform="matrix(1,0,0,1,0.1311716853867324,-0.09999999999999432)"><svg viewBox="0 0 164.73765662922654 247.2" height="247.2" width="164.73765662922654"><g><svg viewBox="0 0 444.76516869396437 667.4002286471896" height="247.2" width="164.73765662922654"><g transform="matrix(1,0,0,1,24.622584346982194,516.1692009046567)"><svg viewBox="0 0 395.52 151.23102774253283" height="151.23102774253283" width="395.52"><g><svg viewBox="0 0 395.52 151.23102774253283" height="151.23102774253283" width="395.52"><g><svg viewBox="0 0 395.52 151.23102774253283" height="151.23102774253283" width="395.52"><g transform="matrix(1,0,0,1,0,0)"><svg width="395.52" viewBox="4.4 -35.5 116.63516120953798 44.6" height="151.23102774253283" data-palette-color="#ffffff"><path d="M6.4-35L19.45-35Q23.85-35 26.23-32.73 28.6-30.45 28.6-26.3L28.6-26.3Q28.6-24.1 27.6-22.25 26.6-20.4 24.68-19.3 22.75-18.2 19.95-18.1L19.95-18.1 19.85-19.5Q21.6-19.5 23.45-19 25.3-18.5 26.88-17.4 28.45-16.3 29.43-14.5 30.4-12.7 30.4-10.05L30.4-10.05Q30.4-7.2 29.45-5.28 28.5-3.35 26.93-2.18 25.35-1 23.43-0.5 21.5 0 19.55 0L19.55 0 6.4 0Q5.55 0 4.98-0.6 4.4-1.2 4.4-2.05L4.4-2.05 4.4-33Q4.4-33.85 4.98-34.43 5.55-35 6.4-35L6.4-35ZM18.85-31.05L18.85-31.05 8.1-31.05 8.7-31.95 8.7-19.5 8.15-20.15 18.95-20.15Q21.15-20.15 22.73-21.58 24.3-23 24.3-25.8L24.3-25.8Q24.3-28.3 22.85-29.68 21.4-31.05 18.85-31.05ZM19.25-16.15L19.25-16.15 8.35-16.15 8.7-16.5 8.7-3.45 8.3-3.9 19.4-3.9Q22.35-3.9 24.23-5.4 26.1-6.9 26.1-10.05L26.1-10.05Q26.1-12.5 25.1-13.83 24.1-15.15 22.53-15.65 20.95-16.15 19.25-16.15ZM34.7-22.75L35.8-33.35Q36-35 37.65-35L37.65-35 39.25-35Q40.15-35 40.47-34.48 40.8-33.95 40.5-33.1L40.5-33.1 37.25-22.45Q36.85-21.2 35.6-21.2L35.6-21.2Q34.55-21.2 34.7-22.75L34.7-22.75ZM58.05-29.85L59.15-29.8 47.4-1.2Q47.2-0.6 46.7-0.25 46.2 0.1 45.65 0.1L45.65 0.1Q44.7 0.1 44.25-0.4 43.8-0.9 43.8-1.6L43.8-1.6Q43.75-1.95 43.9-2.35L43.9-2.35 56.85-33.85Q57.1-34.55 57.62-34.88 58.15-35.2 58.8-35.15L58.8-35.15Q59.45-35.15 59.97-34.8 60.5-34.45 60.7-33.85L60.7-33.85 73.59-2.65Q73.75-2.25 73.75-1.85L73.75-1.85Q73.75-0.95 73.15-0.43 72.55 0.1 71.8 0.1L71.8 0.1Q71.2 0.1 70.7-0.25 70.2-0.6 69.95-1.25L69.95-1.25 58.05-29.85ZM67.2-9.35L49.9-9.35 51.6-13.25 66.45-13.25 67.2-9.35ZM112.19 2.3L112.19 2.3Q112.89 2.3 113.47 2.85 114.04 3.4 114.04 4.2L114.04 4.2Q114.04 5.15 113.12 6.03 112.19 6.9 110.72 7.6 109.24 8.3 107.62 8.7 105.99 9.1 104.59 9.1L104.59 9.1Q101.54 9.1 99.62 8.47 97.69 7.85 96.27 7.05 94.84 6.25 93.47 5.63 92.09 5 90.19 5L90.19 5Q89.24 5 88.59 5.3 87.94 5.6 87.34 5.9 86.74 6.2 85.94 6.2L85.94 6.2Q85.09 6.2 84.52 5.58 83.94 4.95 83.94 4.2L83.94 4.2Q83.94 2.9 85.09 2.45L85.09 2.45 94.29-0.85 98.84-0.4 90.34 2.6 91.74 1.55Q93.69 1.55 95.24 2.15 96.79 2.75 98.19 3.5 99.59 4.25 101.17 4.85 102.74 5.45 104.74 5.45L104.74 5.45Q106.49 5.45 107.67 4.93 108.84 4.4 109.59 3.9L109.59 3.9Q110.34 3.35 110.92 2.83 111.49 2.3 112.19 2.3ZM110.54-17.5L110.54-17.5Q110.54-13.65 109.29-10.38 108.04-7.1 105.79-4.65 103.54-2.2 100.44-0.85 97.34 0.5 93.69 0.5L93.69 0.5Q89.99 0.5 86.92-0.85 83.84-2.2 81.59-4.65 79.34-7.1 78.09-10.38 76.84-13.65 76.84-17.5L76.84-17.5Q76.84-21.4 78.09-24.68 79.34-27.95 81.59-30.38 83.84-32.8 86.92-34.15 89.99-35.5 93.69-35.5L93.69-35.5Q97.34-35.5 100.44-34.15 103.54-32.8 105.79-30.38 108.04-27.95 109.29-24.68 110.54-21.4 110.54-17.5ZM106.24-17.5L106.24-17.5Q106.24-21.6 104.62-24.75 102.99-27.9 100.19-29.7 97.39-31.5 93.69-31.5L93.69-31.5Q89.99-31.5 87.17-29.7 84.34-27.9 82.74-24.75 81.14-21.6 81.14-17.5L81.14-17.5Q81.14-13.45 82.74-10.28 84.34-7.1 87.17-5.3 89.99-3.5 93.69-3.5L93.69-3.5Q97.39-3.5 100.19-5.3 102.99-7.1 104.62-10.28 106.24-13.45 106.24-17.5ZM115.09-22.75L116.19-33.35Q116.39-35 118.04-35L118.04-35 119.64-35Q120.54-35 120.87-34.48 121.19-33.95 120.89-33.1L120.89-33.1 117.64-22.45Q117.24-21.2 115.99-21.2L115.99-21.2Q114.94-21.2 115.09-22.75L115.09-22.75Z" opacity="1" transform="matrix(1,0,0,1,0,0)" fill="#ffffff" class="undefined-text-0" data-fill-palette-color="primary" id="text-0"></path></svg></g></svg></g></svg></g></svg></g><g><svg viewBox="0 0 444.76516869396437 444.76516869396437" height="444.76516869396437" width="444.76516869396437"><g><svg></svg></g><g id="icon-0"><svg viewBox="0 0 444.76516869396437 444.76516869396437" height="444.76516869396437" width="444.76516869396437"><g><path d="M0 222.383c0-122.819 99.564-222.383 222.383-222.383 122.819 0 222.383 99.564 222.382 222.383 0 122.819-99.564 222.383-222.382 222.382-122.819 0-222.383-99.564-222.383-222.382zM222.383 431.127c115.286 0 208.744-93.458 208.744-208.744 0-115.286-93.458-208.744-208.744-208.745-115.286 0-208.744 93.458-208.745 208.745 0 115.286 93.458 208.744 208.745 208.744z" data-fill-palette-color="accent" fill="#ff9966" stroke="transparent"></path></g><g transform="matrix(1,0,0,1,102.77396537156932,122.9462789272941)"><svg viewBox="0 0 239.21723795082573 198.87261083937616" height="198.87261083937616" width="239.21723795082573"><g><svg xmlns="http://www.w3.org/2000/svg" xmlns:xlink="http://www.w3.org/1999/xlink" version="1.1" x="0" y="0" viewBox="5.143999737404527 13.024000000000004 88.51414781328005 73.586" enable-background="new 0 0 100 100" xml:space="preserve" height="198.87261083937616" width="239.21723795082573" class="icon-li-0" data-fill-palette-color="accent" id="li-0"><path fill="#ff9966" d="M49.702 86.61l0.918-1.874c0.395-0.811 8.281-16.878 15.071-26.611-7.196 5.871-12.856 15.824-12.925 15.947l-2.117 3.758 0.134-4.312c0.008-0.238 0.971-23.948 21.132-35.193 7.15-3.989 10.701-8.173 9.999-11.782l-0.507-2.605 2.162 1.54c5.954 4.239 9.813 12.747 10.075 22.203 0.275 9.938-3.473 18.997-10.028 24.236C69.831 82.929 52.489 86.114 51.757 86.245L49.702 86.61zM74.636 50.941l-3.551 3.757c-5.789 6.122-14.64 23.18-17.576 28.997 5.06-1.21 18.189-4.972 28.784-13.437 6.039-4.824 9.49-13.244 9.234-22.521-0.219-7.849-3.039-14.953-7.489-19.139-0.611 3.879-4.385 7.836-11.091 11.577-13.772 7.683-18.101 21.51-19.447 28.73 3.329-4.947 9.506-12.926 16.393-15.909L74.636 50.941z" data-fill-palette-color="accent"></path><path fill="#ff9966" d="M47.44 70.077l-1.896-0.344c-0.682-0.124-16.849-3.148-29.697-13.605C9.146 50.673 5.144 41.937 5.144 32.761c-0.001-7.705 2.852-14.446 7.826-18.496l1.524-1.241 0.101 1.963c0.195 3.807 2.87 4.975 6.918 6.741 1.594 0.695 3.401 1.484 5.263 2.542 18.783 10.671 19.905 35.082 19.943 36.114l0.159 4.26-2.032-3.747c-0.068-0.126-5.314-9.693-12.329-15.368 7.459 8.645 13.776 22.087 14.109 22.802L47.44 70.077zM12.903 17.017c-3.685 3.74-5.767 9.369-5.766 15.744 0 8.583 3.728 16.741 9.969 21.821 9.879 8.04 22.101 11.604 26.813 12.751-2.68-5.359-10.904-20.86-18.576-25.671l-5.443-3.413 6.221 1.603c7.799 2.01 14.624 10.886 18.083 16.153-1.232-7.498-5.293-22.547-18.414-30.002-1.771-1.006-3.527-1.772-5.077-2.448C17.092 21.974 13.894 20.579 12.903 17.017z" data-fill-palette-color="accent"></path></svg><g></g></g></svg></g></svg></g></svg></g><g></g></svg></g></svg><rect width="164.73765662922654" height="247.2" fill="none" stroke="none" visibility="hidden"></rect></g></svg></g></svg>